<?xml version="1.0" encoding="UTF-8"?> <svg xmlns="http://www.w3.org/2000/svg" width="50" height="50" viewBox="0 0 50 50" fill="none"><path d="M39.8701 5.25781V25.7669H10.13V5.25781H39.8701Z" fill="#8CFFC6"></path><path d="M39.565 35.3446C42.6321 35.3446 45.1273 32.8494 45.1273 29.7823V5.5623C45.1273 2.49531 42.6321 0 39.565 0H10.4354C7.36826 0 4.87305 2.49531 4.87305 5.5623V29.7823C4.87305 32.8494 7.36826 35.3446 10.4354 35.3446H15.9527V38.2648H6.17246C5.63311 38.2648 5.1959 38.7021 5.1959 39.2414V49.0234C5.1959 49.5627 5.63311 50 6.17246 50H43.8279C44.3673 50 44.8045 49.5627 44.8045 49.0234V39.2414C44.8045 38.7021 44.3673 38.2648 43.8279 38.2648H34.0477V35.3446H39.565ZM6.82617 29.7823V5.5623C6.82617 3.57217 8.44522 1.95312 10.4354 1.95312H39.565C41.5552 1.95312 43.1742 3.57217 43.1742 5.5623V29.7823C43.1742 31.7725 41.5552 33.3915 39.565 33.3915H10.4354C8.44522 33.3915 6.82617 31.7725 6.82617 29.7823ZM42.8514 48.0469H7.14902V40.218H42.8514V48.0469ZM32.0945 38.2648H17.9059V35.3446H32.0945V38.2648Z" fill="#1324BF"></path><path d="M27.3843 29.1094H22.6152C22.0759 29.1094 21.6387 29.5467 21.6387 30.0859C21.6387 30.6252 22.0759 31.0625 22.6152 31.0625H27.3843C27.9236 31.0625 28.3608 30.6252 28.3608 30.0859C28.3608 29.5467 27.9236 29.1094 27.3843 29.1094Z" fill="#1324BF"></path><path d="M13.2147 43.2109H12.1758C11.6364 43.2109 11.1992 43.6482 11.1992 44.1875C11.1992 44.7268 11.6364 45.1641 12.1758 45.1641H13.2147C13.7541 45.1641 14.1913 44.7268 14.1913 44.1875C14.1913 43.6482 13.7541 43.2109 13.2147 43.2109Z" fill="#1324BF"></path><path d="M18.7898 43.2109H17.751C17.2116 43.2109 16.7744 43.6482 16.7744 44.1875C16.7744 44.7268 17.2116 45.1641 17.751 45.1641H18.7898C19.3292 45.1641 19.7664 44.7268 19.7664 44.1875C19.7664 43.6482 19.3292 43.2109 18.7898 43.2109Z" fill="#1324BF"></path><path d="M24.3641 43.2109H23.3252C22.7858 43.2109 22.3486 43.6482 22.3486 44.1875C22.3486 44.7268 22.7858 45.1641 23.3252 45.1641H24.3641C24.9034 45.1641 25.3406 44.7268 25.3406 44.1875C25.3406 43.6482 24.9034 43.2109 24.3641 43.2109Z" fill="#1324BF"></path><path d="M28.1045 44.1875C28.1045 44.7268 28.5417 45.1641 29.0811 45.1641H37.8244C38.3638 45.1641 38.801 44.7268 38.801 44.1875C38.801 43.6482 38.3638 43.2109 37.8244 43.2109H29.0811C28.5417 43.2109 28.1045 43.6482 28.1045 44.1875Z" fill="#1324BF"></path><path d="M19.5719 15.5481L20.5289 12.94L21.7484 22.2817C21.8057 22.7201 22.1504 23.0654 22.5888 23.1234C22.6318 23.1291 22.6747 23.1319 22.7173 23.1318C23.1077 23.1318 23.4664 22.8974 23.619 22.529L26.1669 16.3792L27.1309 18.5856C27.2728 18.9104 27.5795 19.1329 27.9323 19.1668C28.2852 19.2012 28.6287 19.0408 28.8298 18.7489L31.236 15.2576L31.4407 15.5285C31.6253 15.7728 31.9138 15.9165 32.2199 15.9165H35.4938C36.0332 15.9165 36.4704 15.4792 36.4704 14.9399C36.4704 14.4006 36.0332 13.9633 35.4938 13.9633H32.7061L31.9789 13.0007C31.7897 12.7505 31.4926 12.6097 31.1784 12.6129C30.8648 12.6198 30.5736 12.7769 30.3956 13.0351L28.2178 16.195L27.0379 13.4943C26.8824 13.1382 26.531 12.9087 26.1431 12.9087H26.1337C25.7422 12.9125 25.3907 13.1497 25.2408 13.5115L23.2123 18.4076L21.9507 8.74293C21.8925 8.29713 21.5373 7.94859 21.0904 7.89879C20.6428 7.8482 20.2204 8.1109 20.0655 8.53287L17.9732 14.2351H14.5068C13.9675 14.2351 13.5303 14.6724 13.5303 15.2117C13.5303 15.7509 13.9675 16.1882 14.5068 16.1882H18.6551C19.0646 16.1883 19.4307 15.9327 19.5719 15.5481Z" fill="#1324BF"></path></svg> 