<?xml version="1.0" standalone="no"?>
<!DOCTYPE svg PUBLIC "-//W3C//DTD SVG 20010904//EN"
 "http://www.w3.org/TR/2001/REC-SVG-20010904/DTD/svg10.dtd">
<svg version="1.0" xmlns="http://www.w3.org/2000/svg"
 width="500.000000pt" height="500.000000pt" viewBox="0 0 500.000000 500.000000"
 preserveAspectRatio="xMidYMid meet">

<g transform="translate(0.000000,500.000000) scale(0.100000,-0.100000)"
fill="#000000" stroke="none">
<path d="M1935 4420 c-94 -25 -150 -50 -234 -105 -76 -50 -160 -135 -207 -209
-28 -45 -30 -46 -79 -46 -149 -1 -300 -65 -409 -174 -110 -109 -162 -227 -168
-379 l-3 -68 -60 -32 c-76 -40 -171 -135 -212 -213 -109 -205 -67 -454 104
-618 78 -75 212 -136 300 -136 17 0 34 -4 38 -9 3 -5 -47 -129 -110 -276 -63
-146 -115 -270 -115 -274 0 -5 60 -12 134 -16 73 -4 138 -10 144 -14 7 -4 -41
-124 -129 -326 -242 -553 -308 -705 -304 -705 3 0 159 166 1059 1123 236 251
306 331 295 338 -8 5 -77 9 -154 9 -77 1 -157 4 -178 8 l-37 7 29 62 30 62
1068 3 1068 3 67 26 c141 55 245 148 303 272 90 189 61 395 -79 560 -43 51
-59 78 -66 115 -51 273 -279 473 -559 491 l-93 6 -23 62 c-71 198 -241 346
-445 389 -91 19 -219 14 -304 -13 l-60 -19 -75 38 c-114 56 -212 78 -350 77
-80 0 -138 -6 -186 -19z m365 -133 c71 -23 135 -53 153 -71 15 -15 34 -71 51
-147 l6 -26 -88 -6 c-109 -6 -203 -36 -280 -87 -33 -22 -72 -40 -86 -40 -39 0
-76 -41 -76 -85 0 -50 14 -71 56 -85 61 -21 124 24 124 89 0 25 63 68 135 92
91 30 215 36 215 10 0 -4 -18 -26 -40 -49 -43 -44 -48 -67 -25 -112 26 -50
105 -59 143 -15 23 28 31 98 12 110 -6 4 -8 11 -5 16 12 19 5 205 -9 252 l-15
49 47 21 c59 26 210 35 280 17 83 -22 180 -79 228 -134 57 -65 110 -170 119
-236 7 -48 5 -54 -22 -83 -67 -72 -113 -189 -113 -289 0 -47 -5 -69 -20 -88
-38 -49 -21 -112 36 -136 91 -38 167 74 98 143 -25 25 -26 31 -20 92 7 79 57
189 110 240 34 33 37 34 118 34 211 1 393 -133 452 -332 28 -96 28 -96 -66
-114 -46 -9 -93 -19 -105 -23 -19 -5 -25 -1 -33 22 -30 81 -69 140 -130 197
-36 33 -71 74 -78 90 -17 41 -40 56 -83 57 -82 0 -118 -92 -59 -152 28 -27 36
-30 73 -25 41 6 44 4 99 -53 51 -54 104 -152 92 -171 -2 -4 -16 -10 -30 -13
-15 -4 -79 -32 -143 -63 -228 -110 -330 -143 -436 -143 l-53 0 -7 68 c-8 92
-33 203 -58 265 -22 56 -78 147 -102 167 -20 17 -19 33 5 80 26 52 73 104 124
140 36 24 49 27 88 23 40 -5 50 -2 72 20 19 19 26 36 26 64 -1 57 -38 93 -95
93 -28 0 -85 -48 -85 -73 0 -7 -22 -28 -48 -45 -62 -40 -134 -117 -162 -173
-12 -24 -23 -45 -25 -47 -1 -1 -26 9 -56 22 -55 25 -207 53 -233 43 -8 -3 -22
3 -32 14 -11 12 -30 19 -56 19 -111 0 -118 -159 -7 -176 28 -5 41 -1 67 21 30
25 36 26 95 20 130 -15 226 -71 292 -171 45 -67 82 -176 91 -270 l7 -68 -29
21 c-42 30 -126 121 -154 168 -18 29 -25 55 -25 94 -1 46 -5 57 -29 77 -61 53
-146 15 -146 -65 0 -32 6 -44 31 -65 17 -14 34 -26 39 -26 5 0 30 -33 56 -72
93 -142 216 -234 342 -258 107 -20 291 24 463 110 192 97 346 149 501 170 l82
12 28 -34 c16 -18 43 -62 61 -98 29 -59 32 -72 32 -160 0 -85 -3 -101 -29
-155 -43 -87 -103 -146 -188 -186 l-73 -34 -1108 -5 -1109 -5 -89 -194 c-49
-107 -86 -197 -83 -200 3 -3 68 -7 145 -9 120 -3 162 -11 131 -24 -4 -1 -70
-70 -147 -153 -77 -82 -178 -190 -226 -240 -70 -74 -202 -216 -241 -260 -10
-11 17 53 127 304 41 95 75 176 75 180 0 4 -63 12 -140 18 -77 6 -143 12 -146
15 -2 3 49 128 116 278 66 150 120 277 120 282 0 4 -55 8 -123 8 -180 0 -270
32 -357 126 -61 66 -93 143 -98 235 -10 164 80 306 235 373 l42 19 58 -33
c116 -65 207 -151 277 -262 13 -20 15 -31 7 -47 -16 -28 -2 -79 27 -101 47
-37 115 -20 138 35 13 31 12 39 -1 71 -9 22 -25 40 -42 46 -29 11 -130 154
-118 166 3 4 45 6 93 6 179 -2 306 -65 537 -269 121 -108 208 -173 261 -198
42 -19 66 -22 159 -22 104 1 115 3 205 39 82 34 115 42 178 45 27 2 62 49 62
85 0 53 -37 91 -90 91 -34 0 -47 -6 -66 -28 -13 -16 -24 -37 -24 -47 0 -24
-85 -65 -182 -87 -60 -13 -84 -14 -136 -5 -79 13 -127 44 -280 178 -219 191
-318 254 -460 295 -81 23 -215 25 -292 4 l-55 -14 -40 30 c-22 16 -66 44 -97
62 -55 31 -57 34 -63 82 -15 115 38 257 126 344 96 95 214 138 347 128 88 -7
87 -5 155 -137 52 -100 83 -187 103 -288 13 -70 13 -75 -6 -99 -35 -45 -23
-105 27 -131 92 -50 176 56 108 136 -14 17 -25 38 -25 48 0 19 -23 128 -36
172 l-7 23 50 -19 c152 -58 268 -191 304 -350 10 -40 9 -53 -5 -80 -20 -39
-20 -55 -1 -92 27 -51 108 -57 150 -10 26 29 22 87 -9 119 -15 16 -33 52 -41
87 -30 115 -79 201 -163 283 -82 82 -159 126 -272 158 -49 13 -61 21 -71 46
-7 16 -36 68 -66 114 -29 47 -53 91 -53 98 0 23 90 133 143 176 65 52 171 105
245 124 70 18 256 13 322 -8z"/>
</g>
</svg>
