<?xml version="1.0" encoding="UTF-8"?> <svg xmlns="http://www.w3.org/2000/svg" width="50" height="50" viewBox="0 0 50 50" fill="none"><path fill-rule="evenodd" clip-rule="evenodd" d="M22.0629 31.2101C28.5309 31.2101 33.8064 25.9347 33.8064 19.4666C33.2057 3.91049 10.9177 3.91479 10.3193 19.4668C10.3192 25.9347 15.5947 31.2101 22.0629 31.2101Z" fill="#8CFFC6"></path><path d="M47.2124 28.5999C45.3427 24.4337 41.8931 17.5061 40.6034 13.1839C33.2775 -7.57401 2.79077 -2.57224 2.49023 19.467C2.49014 23.2908 3.61331 26.0696 4.91391 29.287C6.73866 33.8015 8.80689 38.9184 8.80581 49.021C8.79652 49.5457 9.25784 50.0108 9.78444 49.9997H30.9194C31.4598 49.9997 31.898 49.5616 31.898 49.0211C31.898 44.1748 32.6689 42.5621 37.2315 42.5621C44.5378 42.7577 42.8965 37.8574 43.1032 32.678H44.6862C46.7371 32.7098 48.155 30.4253 47.2124 28.5999ZM45.4173 30.3043C45.3402 30.4296 45.1144 30.7208 44.6854 30.7208H42.1245C41.5841 30.7208 41.1459 31.1589 41.1459 31.6994V37.1798C41.1459 39.1395 40.7681 39.7142 40.439 39.9959C39.9402 40.4227 38.981 40.605 37.2314 40.605C31.8291 40.5395 29.9825 43.2034 29.9529 48.0425H10.7565C10.6232 38.1898 8.46966 32.8613 6.72848 28.5535C5.45401 25.4006 4.44739 22.9102 4.44739 19.4666C4.72082 -0.36582 32.1533 -4.87397 38.7496 13.8121C40.0341 18.1343 43.5526 25.2338 45.4405 29.4313C45.6455 29.7964 45.5057 30.1869 45.4173 30.3043Z" fill="#1324BF"></path><path d="M28.9128 15.0627H25.6836C24.387 15.1107 24.3871 16.9721 25.6836 17.02H26.5502L22.0624 21.5079L17.5746 17.02H18.4413C18.9818 17.02 19.4199 16.5819 19.4199 16.0414C19.4199 15.5009 18.9818 15.0627 18.4413 15.0627H15.212C14.6715 15.0627 14.2334 15.5009 14.2334 16.0414V19.2707C14.2334 19.8111 14.6715 20.2493 15.212 20.2493C15.7525 20.2493 16.1907 19.8111 16.1907 19.2707V18.4041L21.0838 23.2973V34.1461C21.0838 34.6866 21.5219 35.1247 22.0624 35.1247C22.6029 35.1247 23.0411 34.6866 23.0411 34.1461V23.2972L27.9343 18.404V19.2707C27.9343 19.8111 28.3725 20.2493 28.9129 20.2493C29.4533 20.2493 29.8916 19.8111 29.8916 19.2707V16.0414C29.8915 15.5009 29.4532 15.0627 28.9128 15.0627Z" fill="#1324BF"></path></svg> 